<mxfile host="app.diagrams.net" modified="2023-05-04T10:12:31.862Z" agent="Mozilla/5.0 (Windows NT 10.0; Win64; x64) AppleWebKit/537.36 (KHTML, like Gecko) Chrome/112.0.0.0 Safari/537.36" etag="fDq5kydbh0CLi0LTC81J" version="21.2.7" type="github">
  <diagram name="第 1 页" id="-dlh2YYQd3B3YwDSxHTu">
    <mxGraphModel dx="2261" dy="756" grid="1" gridSize="10" guides="1" tooltips="1" connect="1" arrows="1" fold="1" page="1" pageScale="1" pageWidth="827" pageHeight="1169" math="0" shadow="0">
      <root>
        <mxCell id="0" />
        <mxCell id="1" parent="0" />
        <mxCell id="mCb4LsVjQbuzS1WQIJIA-5" style="edgeStyle=orthogonalEdgeStyle;rounded=0;orthogonalLoop=1;jettySize=auto;html=1;entryX=1.02;entryY=0.564;entryDx=0;entryDy=0;entryPerimeter=0;exitX=1;exitY=0.5;exitDx=0;exitDy=0;exitPerimeter=0;" edge="1" parent="1" source="mCb4LsVjQbuzS1WQIJIA-1" target="mCb4LsVjQbuzS1WQIJIA-3">
          <mxGeometry relative="1" as="geometry">
            <Array as="points">
              <mxPoint x="610" y="175" />
              <mxPoint x="610" y="382" />
            </Array>
          </mxGeometry>
        </mxCell>
        <mxCell id="mCb4LsVjQbuzS1WQIJIA-6" value="&lt;b style=&quot;border-color: var(--border-color); font-size: 18px;&quot;&gt;replication&lt;/b&gt;" style="edgeStyle=orthogonalEdgeStyle;rounded=0;orthogonalLoop=1;jettySize=auto;html=1;entryX=1;entryY=0.5;entryDx=0;entryDy=0;entryPerimeter=0;exitX=1;exitY=0.5;exitDx=0;exitDy=0;exitPerimeter=0;" edge="1" parent="1" source="mCb4LsVjQbuzS1WQIJIA-1" target="mCb4LsVjQbuzS1WQIJIA-4">
          <mxGeometry x="-0.2656" relative="1" as="geometry">
            <Array as="points">
              <mxPoint x="610" y="175" />
              <mxPoint x="610" y="575" />
            </Array>
            <mxPoint as="offset" />
          </mxGeometry>
        </mxCell>
        <mxCell id="mCb4LsVjQbuzS1WQIJIA-11" value="&lt;font style=&quot;font-size: 18px;&quot;&gt;&lt;b&gt;replication&lt;/b&gt;&lt;/font&gt;" style="edgeLabel;html=1;align=center;verticalAlign=middle;resizable=0;points=[];" vertex="1" connectable="0" parent="mCb4LsVjQbuzS1WQIJIA-6">
          <mxGeometry x="0.425" y="2" relative="1" as="geometry">
            <mxPoint x="-2" y="-21" as="offset" />
          </mxGeometry>
        </mxCell>
        <mxCell id="mCb4LsVjQbuzS1WQIJIA-1" value="&lt;font style=&quot;font-size: 18px;&quot;&gt;&lt;b&gt;master&lt;/b&gt;&lt;/font&gt;" style="verticalLabelPosition=bottom;html=1;verticalAlign=top;align=center;strokeColor=none;fillColor=#00BEF2;shape=mxgraph.azure.mysql_database;" vertex="1" parent="1">
          <mxGeometry x="390" y="120" width="100" height="110" as="geometry" />
        </mxCell>
        <mxCell id="mCb4LsVjQbuzS1WQIJIA-3" value="&lt;font style=&quot;font-size: 18px;&quot;&gt;&lt;b style=&quot;&quot;&gt;slave&lt;/b&gt;&lt;/font&gt;" style="verticalLabelPosition=bottom;html=1;verticalAlign=top;align=center;strokeColor=none;fillColor=#00BEF2;shape=mxgraph.azure.mysql_database;" vertex="1" parent="1">
          <mxGeometry x="390" y="320" width="100" height="110" as="geometry" />
        </mxCell>
        <mxCell id="mCb4LsVjQbuzS1WQIJIA-4" value="&lt;font style=&quot;font-size: 18px;&quot;&gt;&lt;b&gt;slave&lt;/b&gt;&lt;/font&gt;" style="verticalLabelPosition=bottom;html=1;verticalAlign=top;align=center;strokeColor=none;fillColor=#00BEF2;shape=mxgraph.azure.mysql_database;" vertex="1" parent="1">
          <mxGeometry x="390" y="520" width="100" height="110" as="geometry" />
        </mxCell>
        <mxCell id="mCb4LsVjQbuzS1WQIJIA-8" value="&lt;font style=&quot;font-size: 18px;&quot;&gt;&lt;b&gt;write&lt;/b&gt;&lt;/font&gt;" style="edgeStyle=orthogonalEdgeStyle;rounded=0;orthogonalLoop=1;jettySize=auto;html=1;entryX=0;entryY=0.5;entryDx=0;entryDy=0;entryPerimeter=0;" edge="1" parent="1" source="mCb4LsVjQbuzS1WQIJIA-7" target="mCb4LsVjQbuzS1WQIJIA-1">
          <mxGeometry relative="1" as="geometry" />
        </mxCell>
        <mxCell id="mCb4LsVjQbuzS1WQIJIA-9" value="&lt;font style=&quot;font-size: 18px;&quot;&gt;&lt;b&gt;read&lt;/b&gt;&lt;/font&gt;" style="edgeStyle=orthogonalEdgeStyle;rounded=0;orthogonalLoop=1;jettySize=auto;html=1;entryX=0.01;entryY=0.636;entryDx=0;entryDy=0;entryPerimeter=0;" edge="1" parent="1" source="mCb4LsVjQbuzS1WQIJIA-7" target="mCb4LsVjQbuzS1WQIJIA-3">
          <mxGeometry relative="1" as="geometry" />
        </mxCell>
        <mxCell id="mCb4LsVjQbuzS1WQIJIA-10" value="&lt;b&gt;&lt;font style=&quot;font-size: 18px;&quot;&gt;read&lt;/font&gt;&lt;/b&gt;" style="edgeStyle=orthogonalEdgeStyle;rounded=0;orthogonalLoop=1;jettySize=auto;html=1;entryX=0;entryY=0.5;entryDx=0;entryDy=0;entryPerimeter=0;" edge="1" parent="1" source="mCb4LsVjQbuzS1WQIJIA-7" target="mCb4LsVjQbuzS1WQIJIA-4">
          <mxGeometry relative="1" as="geometry" />
        </mxCell>
        <mxCell id="mCb4LsVjQbuzS1WQIJIA-7" value="&lt;font style=&quot;font-size: 18px;&quot;&gt;Client&lt;/font&gt;" style="rounded=1;whiteSpace=wrap;html=1;" vertex="1" parent="1">
          <mxGeometry x="40" y="360" width="120" height="60" as="geometry" />
        </mxCell>
        <mxCell id="mCb4LsVjQbuzS1WQIJIA-17" value="&lt;font style=&quot;font-size: 18px;&quot;&gt;&lt;b&gt;2&lt;/b&gt;&lt;/font&gt;" style="edgeStyle=orthogonalEdgeStyle;rounded=0;orthogonalLoop=1;jettySize=auto;html=1;" edge="1" parent="1" source="mCb4LsVjQbuzS1WQIJIA-12" target="mCb4LsVjQbuzS1WQIJIA-16">
          <mxGeometry x="0.1579" relative="1" as="geometry">
            <mxPoint as="offset" />
          </mxGeometry>
        </mxCell>
        <mxCell id="mCb4LsVjQbuzS1WQIJIA-12" value="&lt;font style=&quot;font-size: 18px;&quot;&gt;&lt;b&gt;master&lt;/b&gt;&lt;/font&gt;" style="verticalLabelPosition=bottom;html=1;verticalAlign=top;align=center;strokeColor=none;fillColor=#00BEF2;shape=mxgraph.azure.mysql_database;" vertex="1" parent="1">
          <mxGeometry x="120" y="955" width="100" height="110" as="geometry" />
        </mxCell>
        <mxCell id="mCb4LsVjQbuzS1WQIJIA-15" value="&lt;font style=&quot;font-size: 18px;&quot;&gt;&lt;b&gt;1 write&lt;/b&gt;&lt;/font&gt;" style="edgeStyle=orthogonalEdgeStyle;rounded=0;orthogonalLoop=1;jettySize=auto;html=1;entryX=0;entryY=0.5;entryDx=0;entryDy=0;entryPerimeter=0;" edge="1" parent="1" source="mCb4LsVjQbuzS1WQIJIA-13" target="mCb4LsVjQbuzS1WQIJIA-12">
          <mxGeometry relative="1" as="geometry" />
        </mxCell>
        <mxCell id="mCb4LsVjQbuzS1WQIJIA-13" value="&lt;font style=&quot;font-size: 18px;&quot;&gt;Client&lt;/font&gt;" style="rounded=1;whiteSpace=wrap;html=1;" vertex="1" parent="1">
          <mxGeometry x="-110" y="980" width="120" height="60" as="geometry" />
        </mxCell>
        <mxCell id="mCb4LsVjQbuzS1WQIJIA-22" value="&lt;font style=&quot;font-size: 18px;&quot;&gt;&lt;b&gt;4 write&lt;/b&gt;&lt;/font&gt;" style="edgeStyle=orthogonalEdgeStyle;rounded=0;orthogonalLoop=1;jettySize=auto;html=1;entryX=0.5;entryY=1;entryDx=0;entryDy=0;entryPerimeter=0;" edge="1" parent="1" source="mCb4LsVjQbuzS1WQIJIA-16" target="mCb4LsVjQbuzS1WQIJIA-18">
          <mxGeometry x="-0.3064" relative="1" as="geometry">
            <mxPoint as="offset" />
          </mxGeometry>
        </mxCell>
        <mxCell id="mCb4LsVjQbuzS1WQIJIA-16" value="&lt;font style=&quot;font-size: 18px;&quot;&gt;&lt;b&gt;binlog&lt;/b&gt;&lt;/font&gt;" style="image;aspect=fixed;html=1;points=[];align=center;fontSize=12;image=img/lib/azure2/general/Media_File.svg;" vertex="1" parent="1">
          <mxGeometry x="137.5" y="1160" width="65" height="80" as="geometry" />
        </mxCell>
        <mxCell id="mCb4LsVjQbuzS1WQIJIA-21" value="&lt;font style=&quot;font-size: 18px;&quot;&gt;&lt;b&gt;3 请求 binlog&lt;/b&gt;&lt;/font&gt;" style="edgeStyle=orthogonalEdgeStyle;rounded=0;orthogonalLoop=1;jettySize=auto;html=1;entryX=1;entryY=0.5;entryDx=0;entryDy=0;entryPerimeter=0;dashed=1;" edge="1" parent="1" source="mCb4LsVjQbuzS1WQIJIA-18" target="mCb4LsVjQbuzS1WQIJIA-12">
          <mxGeometry x="-0.134" relative="1" as="geometry">
            <mxPoint as="offset" />
          </mxGeometry>
        </mxCell>
        <mxCell id="mCb4LsVjQbuzS1WQIJIA-26" value="&lt;font style=&quot;font-size: 18px;&quot;&gt;&lt;b&gt;5 write&lt;/b&gt;&lt;/font&gt;" style="edgeStyle=orthogonalEdgeStyle;rounded=0;orthogonalLoop=1;jettySize=auto;html=1;" edge="1" parent="1" source="mCb4LsVjQbuzS1WQIJIA-18" target="mCb4LsVjQbuzS1WQIJIA-23">
          <mxGeometry relative="1" as="geometry" />
        </mxCell>
        <mxCell id="mCb4LsVjQbuzS1WQIJIA-18" value="&lt;font style=&quot;font-size: 18px;&quot;&gt;&lt;b&gt;slave&lt;/b&gt;&lt;/font&gt;" style="verticalLabelPosition=bottom;html=1;verticalAlign=top;align=center;strokeColor=none;fillColor=#00BEF2;shape=mxgraph.azure.mysql_database;" vertex="1" parent="1">
          <mxGeometry x="414" y="955" width="100" height="110" as="geometry" />
        </mxCell>
        <mxCell id="mCb4LsVjQbuzS1WQIJIA-30" value="&lt;font style=&quot;font-size: 18px;&quot;&gt;&lt;b&gt;6 write&lt;/b&gt;&lt;/font&gt;" style="rounded=0;orthogonalLoop=1;jettySize=auto;html=1;entryX=1;entryY=0.85;entryDx=0;entryDy=0;entryPerimeter=0;exitX=0.477;exitY=0.975;exitDx=0;exitDy=0;exitPerimeter=0;edgeStyle=orthogonalEdgeStyle;curved=1;" edge="1" parent="1" source="mCb4LsVjQbuzS1WQIJIA-23" target="mCb4LsVjQbuzS1WQIJIA-18">
          <mxGeometry x="-0.1402" relative="1" as="geometry">
            <Array as="points">
              <mxPoint x="732" y="1130" />
              <mxPoint x="550" y="1130" />
              <mxPoint x="550" y="1049" />
            </Array>
            <mxPoint as="offset" />
          </mxGeometry>
        </mxCell>
        <mxCell id="mCb4LsVjQbuzS1WQIJIA-23" value="&lt;font style=&quot;font-size: 18px;&quot;&gt;&lt;b&gt;relay log&lt;/b&gt;&lt;/font&gt;" style="image;aspect=fixed;html=1;points=[];align=center;fontSize=12;image=img/lib/azure2/general/Media_File.svg;" vertex="1" parent="1">
          <mxGeometry x="700" y="970" width="65" height="80" as="geometry" />
        </mxCell>
        <mxCell id="mCb4LsVjQbuzS1WQIJIA-27" value="&lt;font style=&quot;font-size: 18px;&quot;&gt;&lt;b&gt;binlog dump thread&lt;/b&gt;&lt;/font&gt;" style="text;html=1;strokeColor=none;fillColor=none;align=center;verticalAlign=middle;whiteSpace=wrap;rounded=0;" vertex="1" parent="1">
          <mxGeometry x="250" y="1220" width="180" height="30" as="geometry" />
        </mxCell>
        <mxCell id="mCb4LsVjQbuzS1WQIJIA-28" value="&lt;font style=&quot;font-size: 18px;&quot;&gt;&lt;b&gt;I/O thread&lt;/b&gt;&lt;/font&gt;" style="text;html=1;strokeColor=none;fillColor=none;align=center;verticalAlign=middle;whiteSpace=wrap;rounded=0;" vertex="1" parent="1">
          <mxGeometry x="550" y="960" width="120" height="30" as="geometry" />
        </mxCell>
        <mxCell id="mCb4LsVjQbuzS1WQIJIA-31" value="&lt;font style=&quot;font-size: 18px;&quot;&gt;&lt;b&gt;SQL thread&lt;/b&gt;&lt;/font&gt;" style="text;html=1;strokeColor=none;fillColor=none;align=center;verticalAlign=middle;whiteSpace=wrap;rounded=0;" vertex="1" parent="1">
          <mxGeometry x="590" y="1150" width="120" height="30" as="geometry" />
        </mxCell>
        <mxCell id="mCb4LsVjQbuzS1WQIJIA-44" style="edgeStyle=orthogonalEdgeStyle;rounded=0;orthogonalLoop=1;jettySize=auto;html=1;entryX=1.02;entryY=0.564;entryDx=0;entryDy=0;entryPerimeter=0;exitX=1;exitY=0.5;exitDx=0;exitDy=0;exitPerimeter=0;" edge="1" parent="1" source="mCb4LsVjQbuzS1WQIJIA-47" target="mCb4LsVjQbuzS1WQIJIA-48">
          <mxGeometry relative="1" as="geometry">
            <Array as="points">
              <mxPoint x="480" y="1505" />
              <mxPoint x="480" y="1712" />
            </Array>
          </mxGeometry>
        </mxCell>
        <mxCell id="mCb4LsVjQbuzS1WQIJIA-45" value="&lt;b style=&quot;border-color: var(--border-color); font-size: 18px;&quot;&gt;replication&lt;/b&gt;" style="edgeStyle=orthogonalEdgeStyle;rounded=0;orthogonalLoop=1;jettySize=auto;html=1;entryX=1;entryY=0.5;entryDx=0;entryDy=0;entryPerimeter=0;exitX=1;exitY=0.5;exitDx=0;exitDy=0;exitPerimeter=0;" edge="1" parent="1" source="mCb4LsVjQbuzS1WQIJIA-47" target="mCb4LsVjQbuzS1WQIJIA-49">
          <mxGeometry x="-0.2656" relative="1" as="geometry">
            <Array as="points">
              <mxPoint x="480" y="1505" />
              <mxPoint x="480" y="1905" />
            </Array>
            <mxPoint as="offset" />
          </mxGeometry>
        </mxCell>
        <mxCell id="mCb4LsVjQbuzS1WQIJIA-46" value="&lt;font style=&quot;font-size: 18px;&quot;&gt;&lt;b&gt;replication&lt;/b&gt;&lt;/font&gt;" style="edgeLabel;html=1;align=center;verticalAlign=middle;resizable=0;points=[];" vertex="1" connectable="0" parent="mCb4LsVjQbuzS1WQIJIA-45">
          <mxGeometry x="0.425" y="2" relative="1" as="geometry">
            <mxPoint x="-2" y="-21" as="offset" />
          </mxGeometry>
        </mxCell>
        <mxCell id="mCb4LsVjQbuzS1WQIJIA-47" value="&lt;font style=&quot;font-size: 18px;&quot;&gt;&lt;b&gt;master&lt;/b&gt;&lt;/font&gt;" style="verticalLabelPosition=bottom;html=1;verticalAlign=top;align=center;strokeColor=none;fillColor=#00BEF2;shape=mxgraph.azure.mysql_database;" vertex="1" parent="1">
          <mxGeometry x="280" y="1450" width="100" height="110" as="geometry" />
        </mxCell>
        <mxCell id="mCb4LsVjQbuzS1WQIJIA-48" value="&lt;font style=&quot;font-size: 18px;&quot;&gt;&lt;b style=&quot;&quot;&gt;slave&lt;/b&gt;&lt;/font&gt;" style="verticalLabelPosition=bottom;html=1;verticalAlign=top;align=center;strokeColor=none;fillColor=#00BEF2;shape=mxgraph.azure.mysql_database;" vertex="1" parent="1">
          <mxGeometry x="280" y="1644" width="100" height="110" as="geometry" />
        </mxCell>
        <mxCell id="mCb4LsVjQbuzS1WQIJIA-49" value="&lt;font style=&quot;font-size: 18px;&quot;&gt;&lt;b&gt;slave&lt;/b&gt;&lt;/font&gt;" style="verticalLabelPosition=bottom;html=1;verticalAlign=top;align=center;strokeColor=none;fillColor=#00BEF2;shape=mxgraph.azure.mysql_database;" vertex="1" parent="1">
          <mxGeometry x="280" y="1840" width="100" height="110" as="geometry" />
        </mxCell>
        <mxCell id="mCb4LsVjQbuzS1WQIJIA-59" style="edgeStyle=orthogonalEdgeStyle;rounded=0;orthogonalLoop=1;jettySize=auto;html=1;entryX=0;entryY=0.5;entryDx=0;entryDy=0;" edge="1" parent="1" source="mCb4LsVjQbuzS1WQIJIA-53" target="mCb4LsVjQbuzS1WQIJIA-54">
          <mxGeometry relative="1" as="geometry" />
        </mxCell>
        <mxCell id="mCb4LsVjQbuzS1WQIJIA-61" value="" style="edgeStyle=orthogonalEdgeStyle;orthogonalLoop=1;jettySize=auto;html=1;exitX=0.5;exitY=1;exitDx=0;exitDy=0;rounded=0;" edge="1" parent="1" source="mCb4LsVjQbuzS1WQIJIA-53" target="mCb4LsVjQbuzS1WQIJIA-60">
          <mxGeometry relative="1" as="geometry" />
        </mxCell>
        <mxCell id="mCb4LsVjQbuzS1WQIJIA-66" value="" style="edgeStyle=orthogonalEdgeStyle;orthogonalLoop=1;jettySize=auto;html=1;rounded=0;" edge="1" parent="1" source="mCb4LsVjQbuzS1WQIJIA-53" target="mCb4LsVjQbuzS1WQIJIA-62">
          <mxGeometry relative="1" as="geometry" />
        </mxCell>
        <mxCell id="mCb4LsVjQbuzS1WQIJIA-68" style="edgeStyle=orthogonalEdgeStyle;orthogonalLoop=1;jettySize=auto;html=1;exitX=0.5;exitY=1;exitDx=0;exitDy=0;rounded=0;" edge="1" parent="1" source="mCb4LsVjQbuzS1WQIJIA-53" target="mCb4LsVjQbuzS1WQIJIA-67">
          <mxGeometry relative="1" as="geometry" />
        </mxCell>
        <mxCell id="mCb4LsVjQbuzS1WQIJIA-53" value="&lt;font style=&quot;font-size: 18px;&quot;&gt;Client&lt;/font&gt;" style="rounded=1;whiteSpace=wrap;html=1;" vertex="1" parent="1">
          <mxGeometry x="-230" y="1681.5" width="120" height="60" as="geometry" />
        </mxCell>
        <mxCell id="mCb4LsVjQbuzS1WQIJIA-55" value="&lt;font style=&quot;font-size: 18px;&quot;&gt;&lt;b&gt;write&lt;/b&gt;&lt;/font&gt;" style="edgeStyle=orthogonalEdgeStyle;rounded=0;orthogonalLoop=1;jettySize=auto;html=1;entryX=0;entryY=0.5;entryDx=0;entryDy=0;entryPerimeter=0;" edge="1" parent="1" source="mCb4LsVjQbuzS1WQIJIA-54" target="mCb4LsVjQbuzS1WQIJIA-47">
          <mxGeometry x="0.0638" relative="1" as="geometry">
            <mxPoint as="offset" />
          </mxGeometry>
        </mxCell>
        <mxCell id="mCb4LsVjQbuzS1WQIJIA-56" style="edgeStyle=orthogonalEdgeStyle;rounded=0;orthogonalLoop=1;jettySize=auto;html=1;entryX=0.03;entryY=0.609;entryDx=0;entryDy=0;entryPerimeter=0;" edge="1" parent="1" source="mCb4LsVjQbuzS1WQIJIA-54" target="mCb4LsVjQbuzS1WQIJIA-48">
          <mxGeometry relative="1" as="geometry" />
        </mxCell>
        <mxCell id="mCb4LsVjQbuzS1WQIJIA-57" value="&lt;font style=&quot;font-size: 18px;&quot;&gt;&lt;b&gt;read&lt;/b&gt;&lt;/font&gt;" style="edgeStyle=orthogonalEdgeStyle;rounded=0;orthogonalLoop=1;jettySize=auto;html=1;entryX=0;entryY=0.5;entryDx=0;entryDy=0;entryPerimeter=0;" edge="1" parent="1" source="mCb4LsVjQbuzS1WQIJIA-54" target="mCb4LsVjQbuzS1WQIJIA-49">
          <mxGeometry x="0.1145" relative="1" as="geometry">
            <mxPoint y="1" as="offset" />
          </mxGeometry>
        </mxCell>
        <mxCell id="mCb4LsVjQbuzS1WQIJIA-58" value="&lt;font style=&quot;font-size: 18px;&quot;&gt;&lt;b&gt;read&lt;/b&gt;&lt;/font&gt;" style="edgeLabel;html=1;align=center;verticalAlign=middle;resizable=0;points=[];" vertex="1" connectable="0" parent="mCb4LsVjQbuzS1WQIJIA-57">
          <mxGeometry x="-0.6702" y="3" relative="1" as="geometry">
            <mxPoint x="35" y="3" as="offset" />
          </mxGeometry>
        </mxCell>
        <mxCell id="mCb4LsVjQbuzS1WQIJIA-54" value="&lt;font style=&quot;font-size: 24px;&quot;&gt;&lt;b&gt;Proxy&lt;/b&gt;&lt;/font&gt;" style="rounded=0;whiteSpace=wrap;html=1;fillColor=#cdeb8b;strokeColor=#36393d;" vertex="1" parent="1">
          <mxGeometry x="-40" y="1644" width="120" height="135" as="geometry" />
        </mxCell>
        <mxCell id="mCb4LsVjQbuzS1WQIJIA-60" value="&lt;font style=&quot;font-size: 18px;&quot;&gt;Application&lt;/font&gt;" style="rounded=1;whiteSpace=wrap;html=1;" vertex="1" parent="1">
          <mxGeometry x="-430" y="1865" width="120" height="60" as="geometry" />
        </mxCell>
        <mxCell id="mCb4LsVjQbuzS1WQIJIA-62" value="&lt;font style=&quot;font-size: 18px;&quot;&gt;图形界面工具&lt;/font&gt;" style="whiteSpace=wrap;html=1;rounded=1;" vertex="1" parent="1">
          <mxGeometry x="-270" y="1865" width="120" height="60" as="geometry" />
        </mxCell>
        <mxCell id="mCb4LsVjQbuzS1WQIJIA-67" value="&lt;font style=&quot;font-size: 18px;&quot;&gt;命令行&lt;/font&gt;" style="whiteSpace=wrap;html=1;rounded=1;" vertex="1" parent="1">
          <mxGeometry x="-100" y="1865" width="120" height="60" as="geometry" />
        </mxCell>
        <mxCell id="mCb4LsVjQbuzS1WQIJIA-69" style="edgeStyle=orthogonalEdgeStyle;rounded=0;orthogonalLoop=1;jettySize=auto;html=1;entryX=1.02;entryY=0.564;entryDx=0;entryDy=0;entryPerimeter=0;exitX=1;exitY=0.5;exitDx=0;exitDy=0;exitPerimeter=0;" edge="1" parent="1" source="mCb4LsVjQbuzS1WQIJIA-72" target="mCb4LsVjQbuzS1WQIJIA-73">
          <mxGeometry relative="1" as="geometry">
            <Array as="points">
              <mxPoint x="555" y="2125" />
              <mxPoint x="555" y="2332" />
            </Array>
          </mxGeometry>
        </mxCell>
        <mxCell id="mCb4LsVjQbuzS1WQIJIA-70" value="&lt;b style=&quot;border-color: var(--border-color); font-size: 18px;&quot;&gt;replication&lt;/b&gt;" style="edgeStyle=orthogonalEdgeStyle;rounded=0;orthogonalLoop=1;jettySize=auto;html=1;entryX=1;entryY=0.5;entryDx=0;entryDy=0;entryPerimeter=0;exitX=1;exitY=0.5;exitDx=0;exitDy=0;exitPerimeter=0;" edge="1" parent="1" source="mCb4LsVjQbuzS1WQIJIA-72" target="mCb4LsVjQbuzS1WQIJIA-74">
          <mxGeometry x="-0.2656" relative="1" as="geometry">
            <Array as="points">
              <mxPoint x="555" y="2125" />
              <mxPoint x="555" y="2525" />
            </Array>
            <mxPoint as="offset" />
          </mxGeometry>
        </mxCell>
        <mxCell id="mCb4LsVjQbuzS1WQIJIA-71" value="&lt;font style=&quot;font-size: 18px;&quot;&gt;&lt;b&gt;replication&lt;/b&gt;&lt;/font&gt;" style="edgeLabel;html=1;align=center;verticalAlign=middle;resizable=0;points=[];" vertex="1" connectable="0" parent="mCb4LsVjQbuzS1WQIJIA-70">
          <mxGeometry x="0.425" y="2" relative="1" as="geometry">
            <mxPoint x="-2" y="-21" as="offset" />
          </mxGeometry>
        </mxCell>
        <mxCell id="mCb4LsVjQbuzS1WQIJIA-72" value="&lt;font style=&quot;font-size: 18px;&quot;&gt;&lt;b&gt;master&lt;/b&gt;&lt;/font&gt;" style="verticalLabelPosition=bottom;html=1;verticalAlign=top;align=center;strokeColor=none;fillColor=#00BEF2;shape=mxgraph.azure.mysql_database;" vertex="1" parent="1">
          <mxGeometry x="355" y="2070" width="100" height="110" as="geometry" />
        </mxCell>
        <mxCell id="mCb4LsVjQbuzS1WQIJIA-73" value="&lt;font style=&quot;font-size: 18px;&quot;&gt;&lt;b style=&quot;&quot;&gt;slave&lt;/b&gt;&lt;/font&gt;" style="verticalLabelPosition=bottom;html=1;verticalAlign=top;align=center;strokeColor=none;fillColor=#00BEF2;shape=mxgraph.azure.mysql_database;" vertex="1" parent="1">
          <mxGeometry x="355" y="2264" width="100" height="110" as="geometry" />
        </mxCell>
        <mxCell id="mCb4LsVjQbuzS1WQIJIA-74" value="&lt;font style=&quot;font-size: 18px;&quot;&gt;&lt;b&gt;slave&lt;/b&gt;&lt;/font&gt;" style="verticalLabelPosition=bottom;html=1;verticalAlign=top;align=center;strokeColor=none;fillColor=#00BEF2;shape=mxgraph.azure.mysql_database;" vertex="1" parent="1">
          <mxGeometry x="355" y="2460" width="100" height="110" as="geometry" />
        </mxCell>
        <mxCell id="mCb4LsVjQbuzS1WQIJIA-75" style="edgeStyle=orthogonalEdgeStyle;rounded=0;orthogonalLoop=1;jettySize=auto;html=1;entryX=0;entryY=0.5;entryDx=0;entryDy=0;" edge="1" parent="1" source="mCb4LsVjQbuzS1WQIJIA-79" target="mCb4LsVjQbuzS1WQIJIA-84">
          <mxGeometry relative="1" as="geometry" />
        </mxCell>
        <mxCell id="mCb4LsVjQbuzS1WQIJIA-76" value="" style="edgeStyle=orthogonalEdgeStyle;orthogonalLoop=1;jettySize=auto;html=1;exitX=0.5;exitY=1;exitDx=0;exitDy=0;rounded=0;" edge="1" parent="1" source="mCb4LsVjQbuzS1WQIJIA-79" target="mCb4LsVjQbuzS1WQIJIA-85">
          <mxGeometry relative="1" as="geometry" />
        </mxCell>
        <mxCell id="mCb4LsVjQbuzS1WQIJIA-77" value="" style="edgeStyle=orthogonalEdgeStyle;orthogonalLoop=1;jettySize=auto;html=1;rounded=0;" edge="1" parent="1" source="mCb4LsVjQbuzS1WQIJIA-79" target="mCb4LsVjQbuzS1WQIJIA-86">
          <mxGeometry relative="1" as="geometry" />
        </mxCell>
        <mxCell id="mCb4LsVjQbuzS1WQIJIA-78" style="edgeStyle=orthogonalEdgeStyle;orthogonalLoop=1;jettySize=auto;html=1;exitX=0.5;exitY=1;exitDx=0;exitDy=0;rounded=0;" edge="1" parent="1" source="mCb4LsVjQbuzS1WQIJIA-79" target="mCb4LsVjQbuzS1WQIJIA-87">
          <mxGeometry relative="1" as="geometry" />
        </mxCell>
        <mxCell id="mCb4LsVjQbuzS1WQIJIA-79" value="&lt;font style=&quot;font-size: 18px;&quot;&gt;Client&lt;/font&gt;" style="rounded=1;whiteSpace=wrap;html=1;" vertex="1" parent="1">
          <mxGeometry x="-210" y="2300" width="120" height="60" as="geometry" />
        </mxCell>
        <mxCell id="mCb4LsVjQbuzS1WQIJIA-80" value="&lt;font style=&quot;font-size: 18px;&quot;&gt;&lt;b&gt;write&lt;/b&gt;&lt;/font&gt;" style="edgeStyle=orthogonalEdgeStyle;rounded=0;orthogonalLoop=1;jettySize=auto;html=1;entryX=0;entryY=0.5;entryDx=0;entryDy=0;entryPerimeter=0;" edge="1" parent="1" source="mCb4LsVjQbuzS1WQIJIA-84" target="mCb4LsVjQbuzS1WQIJIA-72">
          <mxGeometry x="0.0638" relative="1" as="geometry">
            <mxPoint as="offset" />
          </mxGeometry>
        </mxCell>
        <mxCell id="mCb4LsVjQbuzS1WQIJIA-81" style="edgeStyle=orthogonalEdgeStyle;rounded=0;orthogonalLoop=1;jettySize=auto;html=1;entryX=0.03;entryY=0.609;entryDx=0;entryDy=0;entryPerimeter=0;" edge="1" parent="1" source="mCb4LsVjQbuzS1WQIJIA-84" target="mCb4LsVjQbuzS1WQIJIA-73">
          <mxGeometry relative="1" as="geometry" />
        </mxCell>
        <mxCell id="mCb4LsVjQbuzS1WQIJIA-82" value="&lt;font style=&quot;font-size: 18px;&quot;&gt;&lt;b&gt;read&lt;/b&gt;&lt;/font&gt;" style="edgeStyle=orthogonalEdgeStyle;rounded=0;orthogonalLoop=1;jettySize=auto;html=1;entryX=0;entryY=0.5;entryDx=0;entryDy=0;entryPerimeter=0;" edge="1" parent="1" source="mCb4LsVjQbuzS1WQIJIA-84" target="mCb4LsVjQbuzS1WQIJIA-74">
          <mxGeometry x="0.1145" relative="1" as="geometry">
            <mxPoint y="1" as="offset" />
          </mxGeometry>
        </mxCell>
        <mxCell id="mCb4LsVjQbuzS1WQIJIA-83" value="&lt;font style=&quot;font-size: 18px;&quot;&gt;&lt;b&gt;read&lt;/b&gt;&lt;/font&gt;" style="edgeLabel;html=1;align=center;verticalAlign=middle;resizable=0;points=[];" vertex="1" connectable="0" parent="mCb4LsVjQbuzS1WQIJIA-82">
          <mxGeometry x="-0.6702" y="3" relative="1" as="geometry">
            <mxPoint x="35" y="3" as="offset" />
          </mxGeometry>
        </mxCell>
        <mxCell id="mCb4LsVjQbuzS1WQIJIA-84" value="" style="rounded=0;whiteSpace=wrap;html=1;fillColor=#cdeb8b;strokeColor=#36393d;" vertex="1" parent="1">
          <mxGeometry x="-30" y="2240" width="185" height="180" as="geometry" />
        </mxCell>
        <mxCell id="mCb4LsVjQbuzS1WQIJIA-85" value="&lt;font style=&quot;font-size: 18px;&quot;&gt;Application&lt;/font&gt;" style="rounded=1;whiteSpace=wrap;html=1;" vertex="1" parent="1">
          <mxGeometry x="-370" y="2510" width="120" height="60" as="geometry" />
        </mxCell>
        <mxCell id="mCb4LsVjQbuzS1WQIJIA-86" value="&lt;font style=&quot;font-size: 18px;&quot;&gt;图形界面工具&lt;/font&gt;" style="whiteSpace=wrap;html=1;rounded=1;" vertex="1" parent="1">
          <mxGeometry x="-210" y="2510" width="120" height="60" as="geometry" />
        </mxCell>
        <mxCell id="mCb4LsVjQbuzS1WQIJIA-87" value="&lt;font style=&quot;font-size: 18px;&quot;&gt;命令行&lt;/font&gt;" style="whiteSpace=wrap;html=1;rounded=1;" vertex="1" parent="1">
          <mxGeometry x="-40" y="2510" width="120" height="60" as="geometry" />
        </mxCell>
        <mxCell id="mCb4LsVjQbuzS1WQIJIA-92" value="" style="sketch=0;outlineConnect=0;fontColor=#232F3E;gradientColor=none;fillColor=#2E27AD;strokeColor=none;dashed=0;verticalLabelPosition=bottom;verticalAlign=top;align=center;html=1;fontSize=12;fontStyle=0;aspect=fixed;pointerEvents=1;shape=mxgraph.aws4.rds_proxy;" vertex="1" parent="1">
          <mxGeometry x="39" y="2250" width="56" height="56" as="geometry" />
        </mxCell>
        <mxCell id="mCb4LsVjQbuzS1WQIJIA-95" value="" style="sketch=0;outlineConnect=0;fontColor=#232F3E;gradientColor=none;fillColor=#2E27AD;strokeColor=none;dashed=0;verticalLabelPosition=bottom;verticalAlign=top;align=center;html=1;fontSize=12;fontStyle=0;aspect=fixed;pointerEvents=1;shape=mxgraph.aws4.rds_proxy;" vertex="1" parent="1">
          <mxGeometry x="-16" y="2354.5" width="56" height="56" as="geometry" />
        </mxCell>
        <mxCell id="mCb4LsVjQbuzS1WQIJIA-96" value="" style="sketch=0;outlineConnect=0;fontColor=#232F3E;gradientColor=none;fillColor=#2E27AD;strokeColor=none;dashed=0;verticalLabelPosition=bottom;verticalAlign=top;align=center;html=1;fontSize=12;fontStyle=0;aspect=fixed;pointerEvents=1;shape=mxgraph.aws4.rds_proxy;" vertex="1" parent="1">
          <mxGeometry x="90" y="2354.5" width="56" height="56" as="geometry" />
        </mxCell>
        <mxCell id="mCb4LsVjQbuzS1WQIJIA-98" value="" style="endArrow=classic;startArrow=classic;html=1;rounded=0;" edge="1" parent="1" target="mCb4LsVjQbuzS1WQIJIA-92">
          <mxGeometry width="50" height="50" relative="1" as="geometry">
            <mxPoint y="2351.5" as="sourcePoint" />
            <mxPoint x="32" y="2300" as="targetPoint" />
          </mxGeometry>
        </mxCell>
        <mxCell id="mCb4LsVjQbuzS1WQIJIA-100" value="" style="endArrow=classic;startArrow=classic;html=1;rounded=0;" edge="1" parent="1">
          <mxGeometry width="50" height="50" relative="1" as="geometry">
            <mxPoint x="130" y="2355" as="sourcePoint" />
            <mxPoint x="90" y="2305" as="targetPoint" />
          </mxGeometry>
        </mxCell>
        <mxCell id="mCb4LsVjQbuzS1WQIJIA-102" value="" style="endArrow=classic;startArrow=classic;html=1;rounded=0;" edge="1" parent="1">
          <mxGeometry width="50" height="50" relative="1" as="geometry">
            <mxPoint x="39" y="2390" as="sourcePoint" />
            <mxPoint x="99" y="2390" as="targetPoint" />
          </mxGeometry>
        </mxCell>
        <mxCell id="mCb4LsVjQbuzS1WQIJIA-103" value="&lt;font style=&quot;font-size: 18px;&quot;&gt;&lt;b&gt;Proxy&lt;/b&gt;&lt;/font&gt;" style="text;html=1;strokeColor=none;fillColor=none;align=center;verticalAlign=middle;whiteSpace=wrap;rounded=0;" vertex="1" parent="1">
          <mxGeometry x="-30" y="2260" width="60" height="30" as="geometry" />
        </mxCell>
      </root>
    </mxGraphModel>
  </diagram>
</mxfile>
